<svg width="77" height="77" viewBox="0 0 77 77" fill="none" xmlns="http://www.w3.org/2000/svg">
<path fill-rule="evenodd" clip-rule="evenodd" d="M38.5002 7.21875C24.7678 7.21875 13.6356 18.351 13.6356 32.0833V42.7445L10.4272 49.1611V58.5521H26.4689C26.4689 65.1968 31.8555 70.5833 38.5002 70.5833C45.1448 70.5833 50.5314 65.1968 50.5314 58.5521H66.5731V49.1611L63.3647 42.7445V32.0833C63.3647 18.351 52.2325 7.21875 38.5002 7.21875ZM45.7189 58.5521H31.2814C31.2814 62.5389 34.5134 65.7708 38.5002 65.7708C42.487 65.7708 45.7189 62.5389 45.7189 58.5521ZM18.4481 32.0833C18.4481 21.0089 27.4257 12.0313 38.5002 12.0313C49.5746 12.0313 58.5522 21.0089 58.5522 32.0833V43.8805L61.7606 50.2972V53.7396H15.2397V50.2972L18.4481 43.8805V32.0833Z" fill="#5E676E"/>
</svg>
