<svg width="82" height="77" viewBox="0 0 82 77" fill="none" xmlns="http://www.w3.org/2000/svg">
<path d="M33.4098 16.7465C36.3519 10.2553 45.6481 10.2553 48.5902 16.7465C50.0458 19.9579 53.4197 21.8908 56.9228 21.4901L58.0834 21.3574C64.8598 20.5823 69.1787 28.4004 64.915 33.724C62.6793 36.5155 62.6793 40.4845 64.915 43.276C69.1787 48.5996 64.8598 56.4177 58.0834 55.6426L56.9228 55.5099C53.4197 55.1092 50.0458 57.0421 48.5902 60.2535C45.6481 66.7447 36.3519 66.7447 33.4098 60.2535C31.9542 57.0421 28.5803 55.1092 25.0772 55.5099L23.9166 55.6426C17.1402 56.4177 12.8213 48.5996 17.085 43.276C19.3207 40.4845 19.3207 36.5155 17.085 33.724C12.8213 28.4004 17.1402 20.5823 23.9166 21.3574L25.0772 21.4901C28.5803 21.8908 31.9542 19.9579 33.4098 16.7465Z" fill="#E25303"/>
<path d="M53.7708 39.0312C53.7708 45.6759 48.2257 51.0625 41.3854 51.0625C34.5451 51.0625 29 45.6759 29 39.0312C29 32.3866 34.5451 27 41.3854 27C48.2257 27 53.7708 32.3866 53.7708 39.0312Z" fill="#010203"/>
</svg>
