<svg width="77" height="77" viewBox="0 0 77 77" fill="none" xmlns="http://www.w3.org/2000/svg">
<path fill-rule="evenodd" clip-rule="evenodd" d="M38.5001 7.21875C30.9694 7.21875 24.8647 13.3235 24.8647 20.8542C24.8647 28.3848 30.9694 34.4896 38.5001 34.4896C46.0307 34.4896 52.1355 28.3848 52.1355 20.8542C52.1355 13.3235 46.0307 7.21875 38.5001 7.21875ZM29.6772 20.8542C29.6772 15.9814 33.6273 12.0312 38.5001 12.0312C43.3728 12.0312 47.323 15.9814 47.323 20.8542C47.323 25.7269 43.3728 29.6771 38.5001 29.6771C33.6273 29.6771 29.6772 25.7269 29.6772 20.8542Z" fill="#5E676E"/>
<path fill-rule="evenodd" clip-rule="evenodd" d="M38.5001 40.9062C24.7678 40.9062 13.6355 52.0385 13.6355 65.7708V69.7812H63.3647V65.7708C63.3647 52.0385 52.2324 40.9062 38.5001 40.9062ZM38.5001 45.7188C49.3059 45.7188 58.1154 54.2661 58.5364 64.9688H18.4637C18.8848 54.2661 27.6942 45.7188 38.5001 45.7188Z" fill="#5E676E"/>
</svg>
