<svg width="57" height="64" viewBox="0 0 57 64" fill="none" xmlns="http://www.w3.org/2000/svg">
<path fill-rule="evenodd" clip-rule="evenodd" d="M28.4999 0.21875C14.7676 0.21875 3.63534 11.351 3.63534 25.0833V35.7445L0.427002 42.1611V51.5521H16.4687C16.4687 58.1968 21.8552 63.5833 28.4999 63.5833C35.1446 63.5833 40.5312 58.1968 40.5312 51.5521H56.5728V42.1611L53.3645 35.7445V25.0833C53.3645 11.351 42.2322 0.21875 28.4999 0.21875ZM35.7187 51.5521H21.2812C21.2812 55.5389 24.5131 58.7708 28.4999 58.7708C32.4867 58.7708 35.7187 55.5389 35.7187 51.5521ZM8.44784 25.0833C8.44784 14.0089 17.4255 5.03125 28.4999 5.03125C39.5744 5.03125 48.552 14.0089 48.552 25.0833V36.8805L51.7603 43.2972V46.7396H5.2395V43.2972L8.44784 36.8805V25.0833Z" fill="#5E676E"/>
</svg>
