<svg width="72" height="72" viewBox="0 0 72 72" fill="none" xmlns="http://www.w3.org/2000/svg">
<path fill-rule="evenodd" clip-rule="evenodd" d="M31.4167 0.0625C14.1002 0.0625 0.0625 14.1002 0.0625 31.4167C0.0625 48.7331 14.1002 62.7708 31.4167 62.7708C39.1073 62.7708 46.1513 60.0019 51.606 55.4067L67.2501 71.0508L71.0508 67.2501L55.4067 51.606C60.0019 46.1513 62.7708 39.1073 62.7708 31.4167C62.7708 14.1002 48.7331 0.0625 31.4167 0.0625ZM5.4375 31.4167C5.4375 17.0688 17.0688 5.4375 31.4167 5.4375C45.7646 5.4375 57.3958 17.0688 57.3958 31.4167C57.3958 45.7646 45.7646 57.3958 31.4167 57.3958C17.0688 57.3958 5.4375 45.7646 5.4375 31.4167Z" fill="#383E42"/>
</svg>
