<svg width="51" height="63" viewBox="0 0 51 63" fill="none" xmlns="http://www.w3.org/2000/svg">
<path fill-rule="evenodd" clip-rule="evenodd" d="M25.5 0.21875C17.9693 0.21875 11.8645 6.32353 11.8645 13.8542C11.8645 21.3848 17.9693 27.4896 25.5 27.4896C33.0306 27.4896 39.1354 21.3848 39.1354 13.8542C39.1354 6.32353 33.0306 0.21875 25.5 0.21875ZM16.677 13.8542C16.677 8.9814 20.6272 5.03125 25.5 5.03125C30.3727 5.03125 34.3229 8.9814 34.3229 13.8542C34.3229 18.7269 30.3727 22.6771 25.5 22.6771C20.6272 22.6771 16.677 18.7269 16.677 13.8542Z" fill="#5E676E"/>
<path fill-rule="evenodd" clip-rule="evenodd" d="M25.5 33.9062C11.7676 33.9062 0.635376 45.0385 0.635376 58.7708V62.7812H50.3645V58.7708C50.3645 45.0385 39.2323 33.9062 25.5 33.9062ZM25.5 38.7187C36.3058 38.7187 45.1153 47.2661 45.5363 57.9687H5.46362C5.88464 47.2661 14.6941 38.7187 25.5 38.7187Z" fill="#5E676E"/>
</svg>
